<?xml version="1.0" standalone="no"?>
<!DOCTYPE svg PUBLIC "-//W3C//DTD SVG 20010904//EN"
 "http://www.w3.org/TR/2001/REC-SVG-20010904/DTD/svg10.dtd">
<svg version="1.0" xmlns="http://www.w3.org/2000/svg"
 width="565.000000pt" height="517.000000pt" viewBox="0 0 565.000000 517.000000"
 preserveAspectRatio="xMidYMid meet">

<g transform="translate(0.000000,517.000000) scale(0.100000,-0.100000)"
fill="#1a57db" stroke="none">
<path d="M1815 4916 c-337 -48 -639 -205 -864 -450 -166 -179 -300 -454 -342
-696 -10 -58 -13 -340 -13 -1230 -1 -1290 -4 -1229 70 -1450 113 -337 341
-601 649 -750 203 -99 303 -120 565 -120 l189 0 141 432 c137 418 259 792 435
1328 46 140 123 377 170 525 48 149 111 344 140 435 29 91 55 174 57 185 5 25
41 -89 163 -515 53 -184 116 -398 140 -475 24 -77 62 -205 85 -285 23 -80 57
-194 75 -255 18 -60 74 -254 125 -430 87 -302 236 -812 264 -900 12 -39 13
-40 65 -43 164 -10 499 118 696 265 273 204 452 488 516 815 28 145 27 470 -2
611 -41 203 -139 401 -269 542 -79 86 -77 79 -30 127 146 151 245 347 297 588
28 130 25 448 -5 587 -62 285 -187 515 -392 722 -207 209 -472 353 -782 424
-91 21 -113 21 -1073 23 -746 2 -1002 -1 -1070 -10z m2135 -408 c219 -69 374
-159 516 -302 175 -176 270 -361 309 -600 45 -278 -28 -566 -199 -782 -102
-129 -242 -229 -399 -284 l-52 -18 35 -13 c75 -27 193 -93 267 -148 167 -123
289 -303 344 -506 33 -120 33 -364 1 -488 -29 -107 -72 -214 -114 -282 -68
-108 -187 -232 -291 -303 -105 -72 -289 -145 -401 -158 l-53 -6 -15 53 c-20
69 -105 339 -113 360 -5 12 8 17 72 27 170 27 318 133 399 288 52 99 69 166
68 275 -1 159 -65 302 -185 413 -77 71 -133 104 -244 142 -74 25 -95 28 -277
32 l-197 4 -30 97 c-28 92 -113 386 -254 886 -89 314 -234 815 -244 843 -8 20
-18 -5 -57 -135 -48 -156 -110 -353 -307 -973 -104 -326 -151 -472 -489 -1520
-111 -344 -216 -669 -233 -722 -17 -54 -34 -98 -39 -98 -24 0 -203 56 -278 87
-93 38 -210 100 -210 111 0 4 13 47 29 97 16 49 73 225 126 390 54 165 128
392 165 505 67 200 183 557 436 1340 69 212 140 430 159 485 18 55 95 288 170
518 l137 418 681 -3 682 -3 85 -27z m-1875 -25 c-5 -25 -132 -415 -375 -1158
-43 -132 -144 -442 -225 -690 -299 -916 -427 -1300 -436 -1310 -6 -6 -9 430
-7 1140 l3 1150 26 95 c49 178 127 315 254 449 169 178 347 270 640 331 126
26 129 26 120 -7z"/>
<path d="M3430 4083 c0 -5 15 -59 34 -119 19 -60 61 -201 94 -314 33 -113 91
-306 127 -430 37 -124 74 -251 83 -282 16 -65 17 -65 104 -47 357 75 554 497
388 829 -84 168 -228 288 -410 340 -59 18 -111 23 -247 27 -108 4 -173 2 -173
-4z"/>
<path d="M2789 1048 c-33 -106 -105 -329 -160 -496 -54 -167 -99 -310 -99
-318 0 -12 49 -14 311 -14 291 0 310 1 305 18 -3 9 -57 201 -121 427 -129 458
-164 575 -170 575 -2 0 -32 -87 -66 -192z"/>
</g>
</svg>
