<svg xmlns="http://www.w3.org/2000/svg" width="48" height="48" data-name="Layer 1" viewBox="0 0 48 48" id="microphone" fill="white"><path d="M24,28.86A4.87,4.87,0,0,0,28.86,24V15.9a4.86,4.86,0,1,0-9.72,0V24A4.87,4.87,0,0,0,24,28.86Z"></path><path d="M32.1,20.76h-.81a.81.81,0,0,0-.81.81V24a6.48,6.48,0,0,1-7.13,6.45,6.69,6.69,0,0,1-5.83-6.74V21.57a.81.81,0,0,0-.81-.81H15.9a.81.81,0,0,0-.81.81v2a9.19,9.19,0,0,0,7.69,9.2v1.73H20a.81.81,0,0,0-.81.81v.81A.81.81,0,0,0,20,37h8.1a.81.81,0,0,0,.81-.81v-.81a.81.81,0,0,0-.81-.81H25.22V32.82A8.92,8.92,0,0,0,32.91,24V21.57A.81.81,0,0,0,32.1,20.76Z"></path></svg>